<mxfile host="app.diagrams.net" modified="2023-06-08T16:50:14.501Z" agent="Mozilla/5.0 (X11; Ubuntu; Linux x86_64; rv:109.0) Gecko/20100101 Firefox/113.0" etag="FHW-ZonVYsR4fzf_2wr0" version="21.3.4" type="github">
  <diagram name="Pagina-1" id="c6r7ROtZYmS65uKzIdzQ">
    <mxGraphModel dx="1355" dy="795" grid="1" gridSize="10" guides="1" tooltips="1" connect="1" arrows="1" fold="1" page="1" pageScale="1" pageWidth="827" pageHeight="1169" math="0" shadow="0">
      <root>
        <mxCell id="0" />
        <mxCell id="1" parent="0" />
        <mxCell id="LnVoANyj6Dh3y2EfFEzu-14" value="Logger" style="swimlane;fontStyle=1;align=center;verticalAlign=top;childLayout=stackLayout;horizontal=1;startSize=30;horizontalStack=0;resizeParent=1;resizeParentMax=0;resizeLast=0;collapsible=1;marginBottom=0;whiteSpace=wrap;html=1;fillColor=#60a917;fontColor=#ffffff;strokeColor=#2D7600;" parent="1" vertex="1">
          <mxGeometry x="120" y="130" width="210" height="110" as="geometry" />
        </mxCell>
        <mxCell id="LnVoANyj6Dh3y2EfFEzu-17" value="&lt;div align=&quot;center&quot;&gt;logWriter&lt;span style=&quot;white-space: pre;&quot;&gt;: Writer&lt;/span&gt;&lt;/div&gt;" style="text;html=1;align=center;verticalAlign=middle;resizable=0;points=[];autosize=1;strokeColor=none;fillColor=none;" parent="LnVoANyj6Dh3y2EfFEzu-14" vertex="1">
          <mxGeometry y="30" width="210" height="30" as="geometry" />
        </mxCell>
        <mxCell id="LnVoANyj6Dh3y2EfFEzu-15" value="" style="line;strokeWidth=1;fillColor=none;align=left;verticalAlign=middle;spacingTop=-1;spacingLeft=3;spacingRight=3;rotatable=0;labelPosition=right;points=[];portConstraint=eastwest;strokeColor=inherit;" parent="LnVoANyj6Dh3y2EfFEzu-14" vertex="1">
          <mxGeometry y="60" width="210" height="10" as="geometry" />
        </mxCell>
        <mxCell id="LnVoANyj6Dh3y2EfFEzu-16" value="+aggiungiLog(VoceDiLog)" style="text;strokeColor=none;fillColor=none;align=center;verticalAlign=top;spacingLeft=4;spacingRight=4;overflow=hidden;rotatable=0;points=[[0,0.5],[1,0.5]];portConstraint=eastwest;whiteSpace=wrap;html=1;" parent="LnVoANyj6Dh3y2EfFEzu-14" vertex="1">
          <mxGeometry y="70" width="210" height="40" as="geometry" />
        </mxCell>
      </root>
    </mxGraphModel>
  </diagram>
</mxfile>
